<svg width="100" height="100" viewBox="0 0 100 100" fill="none" xmlns="http://www.w3.org/2000/svg">
<g clip-path="url(#clip0_4607_558)">
<path d="M100 50C100 77.5997 77.6084 100 50.0195 100C22.4306 100 0 77.5997 0 50C0 22.4003 22.3916 0 50.0195 0C77.6475 0 100 22.4003 100 50Z" fill="#161616"/>
<path d="M42.3898 32.0298C42.9398 32.0298 43.4128 31.6395 43.5184 31.0985L45.0158 23.4227H65.3767L55.0072 76.5782H34.6463L36.0792 69.2327C36.2067 68.579 35.7074 67.9711 35.0428 67.9711H31.7723C31.2223 67.9711 30.7493 68.3615 30.6437 68.9026L29.1862 76.3742C28.5842 79.3004 30.8369 81.9883 33.7779 81.9883H55.5997C57.8536 81.9883 59.7583 80.3674 60.1923 78.1921L60.1934 78.1864L70.8368 23.6266C71.4387 20.7004 69.186 18.0127 66.2451 18.0127H44.4233C42.1694 18.0127 40.2648 19.6336 39.8307 21.8088L39.8295 21.8145L38.0828 30.7683C37.9553 31.422 38.4547 32.0298 39.1193 32.0298H42.3898Z" fill="#487BFF"/>
<path d="M47.6566 36.3525C48.4802 36.3525 48.9509 36.9718 48.5979 38.7343C48.2685 40.4969 47.5859 41.1161 46.7388 41.1161H41.491L37.4904 62.0282C37.3022 62.9572 36.4785 63.6479 34.4312 63.6479C32.3838 63.6479 31.7719 62.9572 31.9837 62.0282L35.9843 41.1161H30.713C29.8893 41.1161 29.4187 40.4969 29.7717 38.7343C30.1246 36.9718 30.7836 36.3525 31.6307 36.3525H47.6566Z" fill="#F7F8FA"/>
</g>
<defs>
<clipPath id="clip0_4607_558">
<rect width="100" height="100" fill="white"/>
</clipPath>
</defs>
</svg>
